<?xml version="1.0" encoding="UTF-8" standalone="no"?>
<!-- Created with Inkscape (http://www.inkscape.org/) -->

<svg
   xmlns:dc="http://purl.org/dc/elements/1.1/"
   xmlns:cc="http://creativecommons.org/ns#"
   xmlns:rdf="http://www.w3.org/1999/02/22-rdf-syntax-ns#"
   xmlns:svg="http://www.w3.org/2000/svg"
   xmlns="http://www.w3.org/2000/svg"
   xmlns:xlink="http://www.w3.org/1999/xlink"
   xmlns:sodipodi="http://sodipodi.sourceforge.net/DTD/sodipodi-0.dtd"
   xmlns:inkscape="http://www.inkscape.org/namespaces/inkscape"
   width="366.26373"
   height="242.19164"
   id="svg2"
   version="1.1"
   inkscape:version="0.48.5 r10040"
   sodipodi:docname="polarity.svg">
  <defs
     id="defs4">
    <linearGradient
       id="linearGradient3964">
      <stop
         style="stop-color:#ee2218;stop-opacity:1;"
         offset="0"
         id="stop3966" />
      <stop
         style="stop-color:#c3170e;stop-opacity:1;"
         offset="1"
         id="stop3968" />
    </linearGradient>
    <linearGradient
       id="linearGradient3862">
      <stop
         style="stop-color:#a8e11e;stop-opacity:1;"
         offset="0"
         id="stop3864" />
      <stop
         style="stop-color:#99e233;stop-opacity:1;"
         offset="1"
         id="stop3866" />
    </linearGradient>
    <linearGradient
       inkscape:collect="always"
       xlink:href="#linearGradient3862"
       id="linearGradient3868"
       x1="363.86761"
       y1="87.721298"
       x2="350.73074"
       y2="87.816841"
       gradientUnits="userSpaceOnUse" />
    <linearGradient
       inkscape:collect="always"
       xlink:href="#linearGradient3964"
       id="linearGradient3970"
       x1="363.83212"
       y1="297.7251"
       x2="351.19208"
       y2="297.86874"
       gradientUnits="userSpaceOnUse" />
  </defs>
  <sodipodi:namedview
     id="base"
     pagecolor="#ffffff"
     bordercolor="#666666"
     borderopacity="1.0"
     inkscape:pageopacity="0.0"
     inkscape:pageshadow="2"
     inkscape:zoom="1"
     inkscape:cx="184.37306"
     inkscape:cy="121.82886"
     inkscape:document-units="px"
     inkscape:current-layer="layer4"
     showgrid="false"
     fit-margin-top="0"
     fit-margin-left="0"
     fit-margin-right="0"
     fit-margin-bottom="0"
     inkscape:window-width="1679"
     inkscape:window-height="1007"
     inkscape:window-x="4"
     inkscape:window-y="0"
     inkscape:window-maximized="0" />
  <metadata
     id="metadata7">
    <rdf:RDF>
      <cc:Work
         rdf:about="">
        <dc:format>image/svg+xml</dc:format>
        <dc:type
           rdf:resource="http://purl.org/dc/dcmitype/StillImage" />
        <dc:title></dc:title>
      </cc:Work>
    </rdf:RDF>
  </metadata>
  <g
     inkscape:groupmode="layer"
     id="layer4"
     inkscape:label="BoxesNArrows"
     style="display:inline"
     transform="translate(-174.21356,-71.19297)">
    <rect
       style="fill:#f8e6c2;fill-opacity:1;stroke:#000000;stroke-width:1;stroke-linecap:butt;stroke-linejoin:round;stroke-miterlimit:4;stroke-opacity:1;stroke-dasharray:none;stroke-dashoffset:0;display:inline"
       id="rect3972"
       width="182.74574"
       height="120.52267"
       x="174.71356"
       y="71.69297"
       ry="0" />
    <rect
       ry="0"
       y="192.36194"
       x="357.23157"
       height="120.52267"
       width="182.74574"
       id="rect3974"
       style="fill:#f8e6c2;fill-opacity:1;stroke:#000000;stroke-width:1;stroke-linecap:butt;stroke-linejoin:round;stroke-miterlimit:4;stroke-opacity:1;stroke-dasharray:none;stroke-dashoffset:0;display:inline" />
    <rect
       style="fill:#c8c7ef;fill-opacity:1;stroke:#000000;stroke-width:1;stroke-linecap:butt;stroke-linejoin:round;stroke-miterlimit:4;stroke-opacity:1;stroke-dasharray:none;stroke-dashoffset:0;display:inline"
       id="rect3976"
       width="182.74574"
       height="120.52267"
       x="357.23157"
       y="72.080627"
       ry="0" />
    <rect
       ry="0"
       y="192.36194"
       x="174.71356"
       height="120.52267"
       width="182.74574"
       id="rect3978"
       style="fill:#c8c7ef;fill-opacity:1;stroke:#000000;stroke-width:1;stroke-linecap:butt;stroke-linejoin:round;stroke-miterlimit:4;stroke-opacity:1;stroke-dasharray:none;stroke-dashoffset:0;display:inline" />
    <g
       style="display:inline"
       id="g3894">
      <path
         sodipodi:nodetypes="ccccccccccc"
         inkscape:connector-curvature="0"
         id="path3836"
         d="m 319.44109,179.63167 17.43622,-0.14331 c 8.06813,-0.84766 15.45598,-3.09171 21.11455,-8.88531 1.06502,-2.1659 1.87274,-3.61833 -0.76434,-6.40124 l -4.06048,-4.6815 c -0.89415,-3.98568 0.52294,-4.36005 1.57643,-5.30253 1.92058,1.974 4.37125,5.36158 6.64009,8.26429 0.91439,1.99007 2.06354,4.75426 0.23885,8.55092 -4.17557,6.95022 -10.24914,9.04021 -16.14641,11.56045 -6.04491,1.7888 -17.6243,1.68407 -26.17822,2.19744 z"
         style="fill:#c9973b;fill-opacity:1;stroke:#c9973b;stroke-width:0.5;stroke-linecap:butt;stroke-linejoin:round;stroke-miterlimit:4;stroke-opacity:1;stroke-dasharray:none;stroke-dashoffset:0" />
      <path
         sodipodi:nodetypes="cccccccc"
         inkscape:connector-curvature="0"
         id="path3834"
         d="m 396.59326,179.82362 c -13.74679,-0.8453 -28.17253,0.84652 -39.14079,-8.8176 -1.88927,-2.18018 -4.4288,-4.27554 -0.66908,-7.19254 l -2.50902,-2.50903 c -1.82688,2.91028 -5.12764,5.10819 0.33453,11.54152 7.3118,9.35775 13.45693,9.56578 19.0686,10.87244 7.53165,0.45834 15.23433,0.70291 23.27426,0.52591 z"
         style="fill:#9493b6;fill-opacity:1;stroke:#9e9e9e;stroke-width:0.5;stroke-linecap:butt;stroke-linejoin:round;stroke-miterlimit:4;stroke-opacity:0.51555559;stroke-dasharray:none;stroke-dashoffset:0" />
      <path
         sodipodi:nodetypes="ccccc"
         inkscape:connector-curvature="0"
         id="path3838"
         d="m 360.57146,160.14132 c 1.71332,-0.94466 1.53974,-3.05049 1.67197,-4.96813 -5.1109,-3.51534 -6.68332,-5.42749 -7.49996,-8.69422 -0.84644,0.68309 -1.68667,1.38608 -1.91082,4.06049 2.89882,2.64939 5.50212,5.08218 7.73881,9.60186 z"
         style="fill:#9998cb;fill-opacity:1;stroke:#9798cc;stroke-width:0.5;stroke-linecap:butt;stroke-linejoin:round;stroke-miterlimit:4;stroke-opacity:1;stroke-dasharray:none;stroke-dashoffset:0" />
      <path
         style="fill:#98a0b8;fill-opacity:1;stroke:#98a0b8;stroke-width:0.5;stroke-linecap:butt;stroke-linejoin:round;stroke-miterlimit:4;stroke-opacity:1;stroke-dasharray:none;stroke-dashoffset:0"
         d="m 360.47592,144.90254 c 1.71332,-0.94466 1.53974,-3.05049 1.67197,-4.96813 -5.1109,-3.51534 -6.68332,-5.42749 -7.49996,-8.69422 -0.84644,0.68309 -1.68667,1.38608 -1.91082,4.06049 2.89882,2.64939 5.50212,5.08218 7.73881,9.60186 z"
         id="path3840"
         inkscape:connector-curvature="0"
         sodipodi:nodetypes="ccccc" />
      <path
         sodipodi:nodetypes="ccccc"
         inkscape:connector-curvature="0"
         id="path3842"
         d="m 360.667,130.0937 c 1.71332,-0.94466 1.53974,-3.05049 1.67197,-4.96813 -5.1109,-3.51534 -6.68332,-5.42749 -7.49996,-8.69422 -0.84644,0.68309 -1.68667,1.38608 -1.91082,4.06049 2.89882,2.64939 5.50212,5.08218 7.73881,9.60186 z"
         style="fill:#97b09a;fill-opacity:1;stroke:#97b09a;stroke-width:0.5;stroke-linecap:butt;stroke-linejoin:round;stroke-miterlimit:4;stroke-opacity:1;stroke-dasharray:none;stroke-dashoffset:0" />
      <path
         sodipodi:nodetypes="ccccccccccc"
         inkscape:connector-curvature="0"
         id="path3852"
         d="m 359.99822,108.21483 c -0.49109,-7.19742 -0.59713,-14.394836 -0.71656,-21.592254 1.16819,0.686304 2.34675,1.289539 3.3917,2.961769 1.2079,0.125442 2.41493,0.249692 2.00636,-1.863048 -2.4063,-3.997523 -5.34591,-7.061771 -5.82799,-14.42668 -0.74502,-1.042797 -1.55208,-1.651318 -2.67515,-0.04777 -1.16492,6.317338 -3.21405,11.118876 -6.16239,14.378909 -0.12066,1.477422 0.23463,2.58466 2.38852,2.292983 0.97826,-1.696183 2.04778,-2.662212 3.15285,-3.343933 -0.0817,5.669843 -0.0805,11.920238 -0.52547,15.047694 z"
         style="fill:url(#linearGradient3868);fill-opacity:1;stroke:#a4e80c;stroke-width:0.5;stroke-linecap:butt;stroke-linejoin:round;stroke-miterlimit:4;stroke-opacity:1;stroke-dasharray:none;stroke-dashoffset:0" />
      <path
         style="fill:#99c670;fill-opacity:1;stroke:#99c670;stroke-width:0.5;stroke-linecap:butt;stroke-linejoin:round;stroke-miterlimit:4;stroke-opacity:1;stroke-dasharray:none;stroke-dashoffset:0"
         d="m 360.57146,114.95046 c 1.71332,-0.94466 1.53974,-3.05049 1.67197,-4.96813 -5.1109,-3.51534 -6.68332,-5.42749 -7.49996,-8.69422 -0.84644,0.68309 -1.68667,1.38608 -1.91082,4.06049 2.89882,2.64939 5.50212,5.08218 7.73881,9.60186 z"
         id="path3844"
         inkscape:connector-curvature="0"
         sodipodi:nodetypes="ccccc" />
      <path
         sodipodi:nodetypes="ccccc"
         inkscape:connector-curvature="0"
         id="path3846"
         d="m 360.38038,122.1638 c 1.71332,-0.94466 1.53974,-3.05049 1.67197,-4.96813 -5.1109,-3.51534 -6.68332,-5.42749 -7.49996,-8.69422 -0.84644,0.68309 -1.68667,1.38608 -1.91082,4.06049 2.89882,2.64939 5.50212,5.08218 7.73881,9.60186 z"
         style="fill:#babc22;fill-opacity:1;stroke:#babc22;stroke-width:0.5;stroke-linecap:butt;stroke-linejoin:round;stroke-miterlimit:4;stroke-opacity:1;stroke-dasharray:none;stroke-dashoffset:0" />
      <path
         style="fill:#c4a929;fill-opacity:1;stroke:#c4a929;stroke-width:0.5;stroke-linecap:butt;stroke-linejoin:round;stroke-miterlimit:4;stroke-opacity:1;stroke-dasharray:none;stroke-dashoffset:0"
         d="m 360.33261,137.11596 c 1.71332,-0.94466 1.53974,-3.05049 1.67197,-4.96813 -5.1109,-3.51534 -6.68332,-5.42749 -7.49996,-8.69422 -0.84644,0.68309 -1.68667,1.38608 -1.91082,4.06049 2.89882,2.64939 5.50212,5.08218 7.73881,9.60186 z"
         id="path3848"
         inkscape:connector-curvature="0"
         sodipodi:nodetypes="ccccc" />
      <path
         sodipodi:nodetypes="ccccc"
         inkscape:connector-curvature="0"
         id="path3850"
         d="m 360.667,152.88021 c 1.71332,-0.94466 1.53974,-3.05049 1.67197,-4.96813 -5.1109,-3.51534 -6.68332,-5.42749 -7.49996,-8.69422 -0.84644,0.68309 -1.68667,1.38608 -1.91082,4.06049 2.89882,2.64939 5.50212,5.08218 7.73881,9.60186 z"
         style="fill:#c89b2d;fill-opacity:1;stroke:#c89b2d;stroke-width:0.5;stroke-linecap:butt;stroke-linejoin:round;stroke-miterlimit:4;stroke-opacity:1;stroke-dasharray:none;stroke-dashoffset:0" />
    </g>
    <path
       sodipodi:nodetypes="ccccccccccc"
       inkscape:connector-curvature="0"
       id="path3908"
       d="m 319.44109,205.17961 17.43622,0.14331 c 8.06813,0.84766 15.45598,3.09171 21.11455,8.88531 1.06502,2.1659 1.87274,3.61833 -0.76434,6.40124 l -4.06048,4.6815 c -0.89415,3.98568 0.52294,4.36005 1.57643,5.30253 1.92058,-1.974 4.37125,-5.36158 6.64009,-8.26429 0.91439,-1.99007 2.06354,-4.75426 0.23885,-8.55092 -4.17557,-6.95022 -10.24914,-9.04021 -16.14641,-11.56045 -6.04491,-1.7888 -17.6243,-1.68407 -26.17822,-2.19744 z"
       style="fill:#ca9a31;fill-opacity:1;stroke:#cb962f;stroke-width:0.5;stroke-linecap:butt;stroke-linejoin:round;stroke-miterlimit:4;stroke-opacity:1;stroke-dasharray:none;stroke-dashoffset:0;display:inline" />
    <path
       sodipodi:nodetypes="cccccccc"
       inkscape:connector-curvature="0"
       id="path3910"
       d="m 396.59326,204.98766 c -13.74679,0.8453 -28.17253,-0.84652 -39.14079,8.8176 -1.88927,2.18018 -4.4288,4.27554 -0.66908,7.19254 l -2.50902,2.50903 c -1.82688,-2.91028 -5.12764,-5.10819 0.33453,-11.54152 7.3118,-9.35775 13.45693,-9.56578 19.0686,-10.87244 7.53165,-0.45834 15.23433,-0.70291 23.27426,-0.52591 z"
       style="fill:#9897cb;fill-opacity:1;stroke:#9897cb;stroke-width:0.5;stroke-linecap:butt;stroke-linejoin:round;stroke-miterlimit:4;stroke-opacity:1;stroke-dasharray:none;stroke-dashoffset:0;display:inline" />
    <path
       sodipodi:nodetypes="ccccc"
       inkscape:connector-curvature="0"
       id="path3912"
       d="m 360.57146,224.66996 c 1.71332,0.94466 1.53974,3.05049 1.67197,4.96813 -5.1109,3.51534 -6.68332,5.42749 -7.49996,8.69422 -0.84644,-0.68309 -1.68667,-1.38608 -1.91082,-4.06049 2.89882,-2.64939 5.50212,-5.08218 7.73881,-9.60186 z"
       style="fill:#a29fc9;fill-opacity:1;stroke:#a09dc5;stroke-width:0.5;stroke-linecap:butt;stroke-linejoin:round;stroke-miterlimit:4;stroke-opacity:1;stroke-dasharray:none;stroke-dashoffset:0;display:inline" />
    <path
       style="fill:#a797bb;fill-opacity:1;stroke:#a797bb;stroke-width:0.5;stroke-linecap:butt;stroke-linejoin:round;stroke-miterlimit:4;stroke-opacity:1;stroke-dasharray:none;stroke-dashoffset:0;display:inline"
       d="m 360.47592,239.90874 c 1.71332,0.94466 1.53974,3.05049 1.67197,4.96813 -5.1109,3.51534 -6.68332,5.42749 -7.49996,8.69422 -0.84644,-0.68309 -1.68667,-1.38608 -1.91082,-4.06049 2.89882,-2.64939 5.50212,-5.08218 7.73881,-9.60186 z"
       id="path3914"
       inkscape:connector-curvature="0"
       sodipodi:nodetypes="ccccc" />
    <path
       sodipodi:nodetypes="ccccc"
       inkscape:connector-curvature="0"
       id="path3916"
       d="m 360.667,254.71758 c 1.71332,0.94466 1.53974,3.05049 1.67197,4.96813 -5.1109,3.51534 -6.68332,5.42749 -7.49996,8.69422 -0.84644,-0.68309 -1.68667,-1.38608 -1.91082,-4.06049 2.89882,-2.64939 5.50212,-5.08218 7.73881,-9.60186 z"
       style="fill:#bc92a2;fill-opacity:1;stroke:#bc92a2;stroke-width:0.5;stroke-linecap:butt;stroke-linejoin:round;stroke-miterlimit:4;stroke-opacity:1;stroke-dasharray:none;stroke-dashoffset:0;display:inline" />
    <path
       sodipodi:nodetypes="ccccccccccc"
       inkscape:connector-curvature="0"
       id="path3918"
       d="m 359.99822,276.59645 c -0.49109,7.19742 -0.59713,14.39484 -0.71656,21.59225 1.16819,-0.6863 2.34675,-1.28954 3.3917,-2.96176 1.2079,-0.12545 2.41493,-0.2497 2.00636,1.86304 -2.4063,3.99753 -5.34591,7.06177 -5.82799,14.42668 -0.74502,1.0428 -1.55208,1.65132 -2.67515,0.0478 -1.16492,-6.31734 -3.21405,-11.11887 -6.16239,-14.37891 -0.12066,-1.47742 0.23463,-2.58466 2.38852,-2.29298 0.97826,1.69618 2.04778,2.66221 3.15285,3.34393 -0.0817,-5.66984 -0.0805,-11.92023 -0.52547,-15.04769 z"
       style="fill:url(#linearGradient3970);fill-opacity:1;stroke:#f31910;stroke-width:0.5;stroke-linecap:butt;stroke-linejoin:round;stroke-miterlimit:4;stroke-opacity:1;stroke-dasharray:none;stroke-dashoffset:0;display:inline" />
    <path
       style="fill:#cb7080;fill-opacity:1;stroke:#cb7080;stroke-width:0.5;stroke-linecap:butt;stroke-linejoin:round;stroke-miterlimit:4;stroke-opacity:1;stroke-dasharray:none;stroke-dashoffset:0;display:inline"
       d="m 360.57146,269.86082 c 1.71332,0.94466 1.53974,3.05049 1.67197,4.96813 -5.1109,3.51534 -6.68332,5.42749 -7.49996,8.69422 -0.84644,-0.68309 -1.68667,-1.38608 -1.91082,-4.06049 2.89882,-2.64939 5.50212,-5.08218 7.73881,-9.60186 z"
       id="path3920"
       inkscape:connector-curvature="0"
       sodipodi:nodetypes="ccccc" />
    <path
       sodipodi:nodetypes="ccccc"
       inkscape:connector-curvature="0"
       id="path3922"
       d="m 360.38038,262.64748 c 1.71332,0.94466 1.53974,3.05049 1.67197,4.96813 -5.1109,3.51534 -6.68332,5.42749 -7.49996,8.69422 -0.84644,-0.68309 -1.68667,-1.38608 -1.91082,-4.06049 2.89882,-2.64939 5.50212,-5.08218 7.73881,-9.60186 z"
       style="fill:#da6b26;fill-opacity:1;stroke:#000000;stroke-width:0.5;stroke-linecap:butt;stroke-linejoin:round;stroke-miterlimit:4;stroke-opacity:0;stroke-dasharray:none;stroke-dashoffset:0;display:inline" />
    <path
       style="fill:#d38d36;fill-opacity:1;stroke:#d38d36;stroke-width:0.5;stroke-linecap:butt;stroke-linejoin:round;stroke-miterlimit:4;stroke-opacity:1;stroke-dasharray:none;stroke-dashoffset:0;display:inline"
       d="m 360.33261,247.69532 c 1.71332,0.94466 1.53974,3.05049 1.67197,4.96813 -5.1109,3.51534 -6.68332,5.42749 -7.49996,8.69422 -0.84644,-0.68309 -1.68667,-1.38608 -1.91082,-4.06049 2.89882,-2.64939 5.50212,-5.08218 7.73881,-9.60186 z"
       id="path3924"
       inkscape:connector-curvature="0"
       sodipodi:nodetypes="ccccc" />
    <path
       sodipodi:nodetypes="ccccc"
       inkscape:connector-curvature="0"
       id="path3926"
       d="m 360.667,231.93107 c 1.71332,0.94466 1.53974,3.05049 1.67197,4.96813 -5.1109,3.51534 -6.68332,5.42749 -7.49996,8.69422 -0.84644,-0.68309 -1.68667,-1.38608 -1.91082,-4.06049 2.89882,-2.64939 5.50212,-5.08218 7.73881,-9.60186 z"
       style="fill:#cc9a3b;fill-opacity:1;stroke:#cc9a3b;stroke-width:0.5;stroke-linecap:butt;stroke-linejoin:round;stroke-miterlimit:4;stroke-opacity:1;stroke-dasharray:none;stroke-dashoffset:0;display:inline" />
    <path
       style="fill:#8a8676;fill-opacity:0.25777779;stroke:#9e9e9e;stroke-width:0.5;stroke-linecap:butt;stroke-linejoin:round;stroke-miterlimit:4;stroke-opacity:0.51555559;stroke-dasharray:none;stroke-dashoffset:0;display:inline"
       d="m 283.17931,234.38319 8.64057,-2.26857 c 18.23861,-4.73289 31.36427,-12.17263 42.24262,-20.80212 7.15946,-6.24201 14.23529,-12.14951 21.25,-17.8125 4.16729,-4.62771 8.94525,-8.26309 12.0655,-14.59225 5.43578,-10.68923 10.30552,-21.75581 14.00818,-33.60044 3.21714,-10.98195 5.83591,-23.37825 10.52976,-30.86981 3.50654,-6.19273 8.98334,-11.26897 16.83406,-15 4.55618,-2.334572 9.85809,-3.830203 15.57069,-4.863816 L 431.5625,94.125 c -0.90015,-1.347576 -3.42225,-3.39027 -6.33187,-5.599048 -0.52738,-0.881268 -0.48425,-1.415663 1.18592,-1.240902 l 7.8121,3.267069 c 2.36386,0.857198 6.39559,1.436417 10.45885,2.010381 2.66021,0.503372 2.78885,2.233177 0,3.125 -2.72575,0.52833 -5.88076,1.547242 -9.61981,3.233626 l -6.997,5.055114 c -1.07558,0.34449 -1.92847,-1.54939 0.57068,-3.39737 1.17849,-1.472425 2.33948,-2.936107 3.23363,-4.26637 -5.7639,1.666794 -11.59132,4.09579 -17.5,7.5 -5.88428,4.05118 -10.00418,9.55538 -13.4375,15.625 l -9.6875,28.75 c -3.09164,8.64602 -6.70707,17.69259 -12.24181,28.20687 l -4.94569,10.23063 -17.07887,14.34824 c -4.3502,4.25273 -8.19419,8.50546 -13.75,12.75819 -10.95009,7.47352 -22.43459,14.07677 -33.81769,17.51338 -4.36191,1.1954 -8.89891,2.32434 -13.68231,3.09824 0,0 -12.17573,1.03275 -12.55432,0.0401 z"
       id="path3796"
       inkscape:connector-curvature="0"
       sodipodi:nodetypes="cccccccccccccccccccccccccccccc" />
    <path
       style="fill:#8a8676;fill-opacity:0.25777779;stroke:#9e9e9e;stroke-width:0.5;stroke-linecap:butt;stroke-linejoin:round;stroke-miterlimit:4;stroke-opacity:0.51555559;stroke-dasharray:none;stroke-dashoffset:0;display:inline"
       d="m 470.7485,97.125151 c 16.16939,5.200069 31.8459,11.737949 40.68832,36.825509 3.77597,8.98596 4.86253,21.55781 4.12034,36.56799 0.0361,17.78007 -4.87815,30.41931 -11.33093,41.46089 -10.5738,10.37631 -22.25125,18.47634 -36.82551,20.60169 -0.20164,-0.74974 2.2791,-3.77545 4.63538,-6.69555 -0.1274,-0.50764 -0.24975,-1.01965 -1.54513,-0.51504 -5.22194,3.39065 -10.55852,7.12521 -14.93622,7.98315 -2.32691,0.25983 -2.65749,2.28545 -0.51504,2.57521 6.41464,1.00665 12.42632,2.49683 17.25391,5.40794 2.61859,0.46437 2.41018,-0.38613 1.63314,-1.50112 -2.20066,-1.61877 -5.38845,-3.10293 -6.011,-4.9369 22.87737,-0.86039 36.46635,-10.59635 48.15644,-22.14681 9.17583,-11.46567 9.66114,-27.40828 10.81589,-43.00602 0.81463,-14.36604 1.55701,-28.74919 -6.95307,-45.32371 C 504.5688,99.545824 488.18779,96.4873 471.77858,94.034898 c -3.43979,-1.481953 -4.14884,1.269786 -1.03008,3.090253 z"
       id="path3817"
       inkscape:connector-curvature="0"
       sodipodi:nodetypes="ccccccccccccccccc" />
    <path
       style="fill:#8a8676;fill-opacity:0.25777779;stroke:#9e9e9e;stroke-width:0.5;stroke-linecap:butt;stroke-linejoin:round;stroke-miterlimit:4;stroke-opacity:0.51555559;stroke-dasharray:none;stroke-dashoffset:0;display:inline"
       d="m 430.12635,234.23706 c -29.92256,-6.53568 -46.55399,-18.93508 -59.99398,-32.74248 l -19.72683,-17.69314 c -9.98675,-16.06527 -17.97274,-40.02691 -25.16597,-64.2129 -6.77256,-13.56475 -16.86879,-24.80495 -42.30546,-26.044702 1.35145,-0.826873 -0.65806,-0.571489 0.45444,-1.202432 1.20668,-0.684362 5.54561,-3.566997 5.52576,-5.022729 -4.06179,2.722402 -14.36434,4.739368 -19.65318,5.169891 -2.10411,0.30244 -1.85573,1.760785 -0.55407,2.319538 5.93293,2.035891 13.11403,4.547253 18.38891,9.708874 0.13598,-3.3745 -2.65758,-5.835769 -4.67664,-6.78241 l 0.0608,-0.771874 c 16.94101,1.962971 27.73877,13.636244 33.9627,32.539114 5.44114,18.06768 11.62964,36.24859 25.01444,55.51985 l 17.69314,16.87966 c 28.05598,30.32981 49.16789,31.64333 70.56919,34.16607 1.18546,-0.24325 1.57684,-1.22022 0.40674,-1.83033 z"
       id="path3819"
       inkscape:connector-curvature="0"
       sodipodi:nodetypes="cccccsccccccccccc" />
    <path
       transform="translate(-17.28571,-306.14789)"
       sodipodi:nodetypes="ccccccccccccccccc"
       inkscape:connector-curvature="0"
       id="path3821"
       d="m 261.49818,404.27304 c -16.16939,5.20007 -31.8459,11.73795 -40.68832,36.82551 -3.77597,8.98596 -4.86253,21.55781 -4.12034,36.56799 -0.0361,17.78007 4.87815,30.41931 11.33093,41.46089 10.5738,10.37631 22.25125,18.47634 36.82551,20.60169 0.20164,-0.74974 -2.2791,-3.77545 -4.63538,-6.69555 0.1274,-0.50764 0.24975,-1.01965 1.54513,-0.51504 5.22194,3.39065 10.55852,7.12521 14.93622,7.98315 2.32691,0.25983 2.65749,2.28545 0.51504,2.57521 -6.41464,1.00665 -12.42632,2.49683 -17.25391,5.40794 -2.61859,0.46437 -2.41018,-0.38613 -1.63314,-1.50112 2.20066,-1.61877 5.38845,-3.10293 6.011,-4.9369 -22.87737,-0.86039 -36.46635,-10.59635 -48.15644,-22.14681 -9.17583,-11.46567 -9.66114,-27.40828 -10.81589,-43.00602 -0.81463,-14.36604 -1.55701,-28.74919 6.95307,-45.32371 15.36622,-24.87656 31.74723,-27.93508 48.15644,-30.38748 3.43979,-1.48196 4.14884,1.26978 1.03008,3.09025 z"
       style="fill:#8a8676;fill-opacity:0.25777779;stroke:#9e9e9e;stroke-width:0.5;stroke-linecap:butt;stroke-linejoin:round;stroke-miterlimit:4;stroke-opacity:0.51555559;stroke-dasharray:none;stroke-dashoffset:0;display:inline" />
  </g>
</svg>
